:FULLY-SPECIFIED
:FORCE-ALL-JOINTS-BE-3DOF
:DEGREES
679
root 5.36457 16.3769 0.966495 16.1751 -23.1357 0.936992
lfemur -33.2515 24.9699 -9.81808
ltibia 96.1609 -0 0
lfoot 7.70545 -4.68461 0.452853
ltoes 6.84515 -0 0
rfemur -34.9215 -13.4347 25.0349
rtibia 50.0716 -0 0
rfoot -17.2825 -4.76052 0.785106
rtoes 1.04734 -0 0
lowerback -0.119687 -6.28588 -0.670574
upperback -1.99925 -8.42273 0.292273
thorax -1.82789 -4.19516 0.764019
lowerneck -9.3062 -4.17802 0.411253
upperneck 2.22287 -5.77194 2.93972
head 2.38424 -2.79152 0.585858
lclavicle 1.53064e-014 -6.75868e-015 0
lhumerus 21.2212 -62.806 51.1588
lradius 87.0011 -0 0
lwrist 28.842 0 0
lhand -14.7329 -2.00733 0.0707864
lfingers 7.12502 -0 0
lthumb 11.4212 27.6361 0.0659252
rclavicle 1.53064e-014 -6.75868e-015 0
rhumerus -49.3874 -11.6696 -40.0674
rradius 75.0961 -0 0
rwrist -18.2379 0 0
rhand -29.1837 -46.8943 -0.0902811
rfingers 7.12502 -0 0
rthumb -2.52874 -76.8403 -0.0885299
680
root 5.35602 16.4864 1.10378 15.9819 -24.6187 0.998694
lfemur -34.4294 24.3903 -7.27591
ltibia 99.3304 -0 0
lfoot 8.10765 -4.65961 0.463305
ltoes 8.49648 -0 0
rfemur -32.4955 -12.6634 24.121
rtibia 46.1121 -0 0
rfoot -15.6003 -3.99644 0.920077
rtoes 0.726217 -0 0
lowerback 0.0626756 -6.20469 -0.767876
upperback -1.98692 -8.32348 0.0925911
thorax -1.93391 -4.14369 0.634217
lowerneck -9.0871 -4.17759 0.410211
upperneck 2.39914 -5.7808 3.0897
head 2.40891 -2.79215 0.636579
lclavicle 1.53064e-014 -6.75868e-015 0
lhumerus 24.504 -60.6061 46.3641
lradius 87.0321 -0 0
lwrist 29.0157 0 0
lhand -15.2686 -2.37013 0.0815559
lfingers 7.12502 -0 0
lthumb 10.9045 27.2973 0.0758043
rclavicle 1.53064e-014 -6.75868e-015 0
rhumerus -48.8811 -11.4102 -38.0561
rradius 77.0145 -0 0
rwrist -17.7571 0 0
rhand -29.5961 -46.574 -0.104992
rfingers 7.12502 -0 0
rthumb -2.92695 -76.5125 -0.102909
681
root 5.34743 16.6023 1.24227 15.7789 -26.1302 1.06773
lfemur -35.6508 23.8144 -4.64673
ltibia 102.513 -0 0
lfoot 8.43332 -4.60089 0.458661
ltoes 10.2615 -0 0
rfemur -30.0274 -11.8545 23.2062
rtibia 42.0185 -0 0
rfoot -13.8061 -3.19499 1.03356
rtoes 0.406699 -0 0
lowerback 0.254484 -6.11273 -0.881053
upperback -1.97374 -8.2108 -0.118507
thorax -2.04426 -4.08553 0.502299
lowerneck -8.85785 -4.18452 0.406124
upperneck 2.58516 -5.80077 3.25683
head 2.4362 -2.79753 0.692887
lclavicle 1.53064e-014 -6.75868e-015 0
lhumerus 27.2763 -58.2137 41.9992
lradius 87.0223 -0 0
lwrist 29.1875 0 0
lhand -15.8108 -2.73821 0.0903389
lfingers 7.12502 -0 0
lthumb 10.3813 26.9529 0.0838204
rclavicle 1.53064e-014 -6.75868e-015 0
rhumerus -48.3102 -11.1465 -36.0264
rradius 78.9989 -0 0
rwrist -17.2469 0 0
rhand -30.0276 -46.2374 -0.117605
rfingers 7.12502 -0 0
rthumb -3.34365 -76.168 -0.11521
682
root 5.33893 16.724 1.38225 15.5676 -27.6695 1.14434
lfemur -36.9021 23.248 -1.96064
ltibia 105.67 -0 0
lfoot 8.69071 -4.51519 0.440885
ltoes 12.1136 -0 0
rfemur -27.548 -11.0106 22.2994
rtibia 37.8585 -0 0
rfoot -11.9226 -2.37235 1.1194
rtoes 0.101722 -0 0
lowerback 0.454079 -6.01084 -1.007
upperback -1.9599 -8.0858 -0.337915
thorax -2.15809 -4.02131 0.369413
lowerneck -8.62139 -4.19822 0.398739
upperneck 2.77714 -5.83093 3.43753
head 2.46523 -2.80727 0.753718
lclavicle 1.53064e-014 -6.75868e-015 0
lhumerus 29.5582 -55.6691 38.0509
lradius 86.9671 -0 0
lwrist 29.3544 0 0
lhand -16.3557 -3.10785 0.0967494
lfingers 7.12502 -0 0
lthumb 9.85562 26.6065 0.0896231
rclavicle 1.53064e-014 -6.75868e-015 0
rhumerus -47.6778 -10.8842 -33.9962
rradius 81.028 -0 0
rwrist -16.7141 0 0
rhand -30.471 -45.8867 -0.12755
rfingers 7.12502 -0 0
rthumb -3.77183 -75.8092 -0.124877
683
root 5.33062 16.8508 1.524 15.3493 -29.2363 1.22871
lfemur -38.1691 22.6944 0.752187
ltibia 108.765 -0 0
lfoot 8.88802 -4.4092 0.412084
ltoes 14.026 -0 0
rfemur -25.0875 -10.1358 21.4082
rtibia 33.6996 -0 0
rfoot -9.97289 -1.54514 1.17301
rtoes -0.175778 0 0
lowerback 0.65981 -5.89991 -1.14261
upperback -1.9456 -7.9496 -0.562529
thorax -2.27451 -3.95163 0.236708
lowerneck -8.38066 -4.2181 0.387808
upperneck 2.97132 -5.87032 3.62821
head 2.49512 -2.821 0.818012
lclavicle 1.53064e-014 -6.75868e-015 0
lhumerus 31.3859 -53.014 34.4898
lradius 86.8622 -0 0
lwrist 29.5137 0 0
lhand -16.8992 -3.47533 0.100521
lfingers 7.12502 -0 0
lthumb 9.33118 26.2617 0.0929731
rclavicle 1.53064e-014 -6.75868e-015 0
rhumerus -46.9877 -10.6285 -31.983
rradius 83.0804 -0 0
rwrist -16.1654 0 0
rhand -30.919 -45.5239 -0.134372
rfingers 7.12502 -0 0
rthumb -4.20444 -75.4383 -0.131467
684
root 5.32263 16.982 1.6678 15.1256 -30.8298 1.32096
lfemur -39.4367 22.1545 3.46154
ltibia 111.76 -0 0
lfoot 9.03346 -4.28955 0.374458
ltoes 15.9721 -0 0
rfemur -22.6753 -9.23559 20.5387
rtibia 29.6094 -0 0
rfoot -7.97989 -0.730361 1.19152
rtoes -0.412863 0 0
lowerback 0.870038 -5.78083 -1.28479
upperback -1.93101 -7.80332 -0.78925
thorax -2.39266 -3.8771 0.105338
lowerneck -8.13859 -4.24356 0.373084
upperneck 3.16393 -5.9179 3.8253
head 2.52498 -2.83833 0.884708
lclavicle 1.53064e-014 -6.75868e-015 0
lhumerus 32.8023 -50.2898 31.2802
lradius 86.7033 -0 0
lwrist 29.6626 0 0
lhand -17.4375 -3.83694 0.10151
lfingers 7.12502 -0 0
lthumb 8.81179 25.9222 0.0937431
rclavicle 1.53064e-014 -6.75868e-015 0
rhumerus -46.2442 -10.3837 -30.0047
rradius 85.1347 -0 0
rwrist -15.6076 0 0
rhand -31.3643 -45.1513 -0.137734
rfingers 7.12502 -0 0
rthumb -4.63445 -75.0577 -0.134654
685
root 5.31505 17.1167 1.81392 14.8979 -32.4498 1.42114
lfemur -40.6894 21.6266 6.13711
ltibia 114.616 -0 0
lfoot 9.13528 -4.16285 0.33025
ltoes 17.9253 -0 0
rfemur -20.3403 -8.31694 19.6957
rtibia 25.6555 -0 0
rfoot -5.96677 0.0547803 1.17389
rtoes -0.596596 0 0
lowerback 1.08314 -5.65452 -1.43048
upperback -1.91627 -7.64809 -1.01498
thorax -2.51165 -3.79832 -0.0235404
lowerneck -7.89811 -4.27403 0.354332
upperneck 3.3512 -5.97262 4.02525
head 2.55395 -2.85888 0.952746
lclavicle 1.53064e-014 -6.75868e-015 0
lhumerus 33.8509 -47.5368 28.3863
lradius 86.486 -0 0
lwrist 29.7984 0 0
lhand -17.9666 -4.18895 0.0996871
lfingers 7.12502 -0 0
lthumb 8.30125 25.5915 0.0919155
rclavicle 1.53064e-014 -6.75868e-015 0
rhumerus -45.4517 -10.1536 -28.0791
rradius 87.1697 -0 0
rwrist -15.0475 0 0
rhand -31.7996 -44.7711 -0.13743
rfingers 7.12502 -0 0
rthumb -5.05481 -74.6696 -0.134243
686
root 5.30799 17.2545 1.96263 14.6678 -34.0955 1.52922
lfemur -41.9116 21.1064 8.74852
ltibia 117.296 -0 0
lfoot 9.2017 -4.03569 0.281713
ltoes 19.8588 -0 0
rfemur -18.1107 -7.38795 18.8822
rtibia 21.9055 -0 0
rfoot -3.95665 0.792997 1.12087
rtoes -0.714041 0 0
lowerback 1.29751 -5.52194 -1.57661
upperback -1.90151 -7.48503 -1.23664
thorax -2.6306 -3.71587 -0.148766
lowerneck -7.66216 -4.3089 0.33132
upperneck 3.52938 -6.03335 4.2245
head 2.58113 -2.88225 1.02107
lclavicle 1.53064e-014 -6.75868e-015 0
lhumerus 34.5727 -44.7939 25.7757
lradius 86.2059 -0 0
lwrist 29.9182 0 0
lhand -18.4825 -4.52764 0.0951397
lfingers 7.12502 -0 0
lthumb 7.80335 25.2734 0.087578
rclavicle 1.53064e-014 -6.75868e-015 0
rhumerus -44.615 -9.94088 -26.2242
rradius 89.164 -0 0
rwrist -14.4919 0 0
rhand -32.2176 -44.3856 -0.133386
rfingers 7.12502 -0 0
rthumb -5.45848 -74.2765 -0.13017
687
root 5.30158 17.3944 2.11422 14.4367 -35.7666 1.64507
lfemur -43.0873 20.5871 11.2653
ltibia 119.762 -0 0
lfoot 9.24101 -3.91468 0.231086
ltoes 21.746 -0 0
rfemur -16.0144 -6.45767 18.0999
rtibia 18.427 -0 0
rfoot -1.9725 1.46708 1.035
rtoes -0.75226 0 0
lowerback 1.51157 -5.38407 -1.72013
upperback -1.88682 -7.31527 -1.45113
thorax -2.7486 -3.63033 -0.269172
lowerneck -7.43366 -4.34759 0.303829
upperneck 3.69475 -6.09893 4.41954
head 2.60566 -2.90805 1.08861
lclavicle 1.53064e-014 -6.75868e-015 0
lhumerus 35.0044 -42.0986 23.4213
lradius 85.8588 -0 0
lwrist 30.0193 0 0
lhand -18.9815 -4.84928 0.0880593
lfingers 7.12502 -0 0
lthumb 7.32192 24.9715 0.0809163
rclavicle 1.53064e-014 -6.75868e-015 0
rhumerus -43.7391 -9.74722 -24.4579
rradius 91.0962 -0 0
rwrist -13.9475 0 0
rhand -32.6111 -43.9968 -0.125662
rfingers 7.12502 -0 0
rthumb -5.83842 -73.8806 -0.122506
688
root 5.29593 17.5359 2.26897 14.2063 -37.4626 1.76846
lfemur -44.2004 20.0598 13.6571
ltibia 121.976 -0 0
lfoot 9.26147 -3.80642 0.180577
ltoes 23.5602 -0 0
rfemur -14.0787 -5.53603 17.3488
rtibia 15.2875 -0 0
rfoot -0.0371412 2.06006 0.920433
rtoes -0.698317 0 0
lowerback 1.72375 -5.24194 -1.85802
upperback -1.87225 -7.13994 -1.65538
thorax -2.86477 -3.54227 -0.383589
lowerneck -7.21555 -4.3895 0.271647
upperneck 3.84357 -6.16815 4.60685
head 2.62666 -2.93588 1.15433
lclavicle 1.53064e-014 -6.75868e-015 0
lhumerus 35.1784 -39.4867 21.3017
lradius 85.4402 -0 0
lwrist 30.0989 0 0
lhand -19.4594 -5.15016 0.0787331
lfingers 7.12502 -0 0
lthumb 6.86072 24.6894 0.0722053
rclavicle 1.53064e-014 -6.75868e-015 0
rhumerus -42.829 -9.57346 -22.7983
rradius 92.9451 -0 0
rwrist -13.4212 0 0
rhand -32.9727 -43.607 -0.114452
rfingers 7.12502 -0 0
rthumb -6.18757 -73.4843 -0.11145
689
root 5.29114 17.6781 2.42714 13.9783 -39.183 1.89903
lfemur -45.2349 19.5134 15.8932
ltibia 123.9 -0 0
lfoot 9.27141 -3.71751 0.132353
ltoes 25.2747 -0 0
rfemur -12.3308 -4.63359 16.6276
rtibia 12.5547 -0 0
rfoot 1.82686 2.55528 0.782718
rtoes -0.539274 0 0
lowerback 1.93251 -5.09658 -1.98727
upperback -1.85786 -6.96019 -1.84631
thorax -2.97819 -3.45225 -0.490841
lowerneck -7.01076 -4.43406 0.234576
upperneck 3.97214 -6.23976 4.78294
head 2.64326 -2.96535 1.21716
lclavicle 1.53064e-014 -6.75868e-015 0
lhumerus 35.1226 -36.9921 19.4016
lradius 84.9457 -0 0
lwrist 30.1542 0 0
lhand -19.9124 -5.42656 0.0675311
lfingers 7.12502 -0 0
lthumb 6.42357 24.4307 0.0617965
rclavicle 1.53064e-014 -6.75868e-015 0
rhumerus -41.8901 -9.41935 -21.2636
rradius 94.6893 -0 0
rwrist -12.9196 0 0
rhand -33.2951 -43.2184 -0.100078
rfingers 7.12502 -0 0
rthumb -6.49889 -73.0898 -0.0973309
690
root 5.28732 17.8205 2.58902 13.7545 -40.9273 2.03627
lfemur -46.1747 18.9351 17.943
ltibia 125.497 -0 0
lfoot 9.27913 -3.65459 0.0885506
ltoes 26.8629 -0 0
rfemur -10.7975 -3.76145 15.9339
rtibia 10.2961 -0 0
rfoot 3.59716 2.93655 0.628545
rtoes -0.262195 0 0
lowerback 2.13634 -4.94906 -2.10487
upperback -1.84363 -6.77713 -2.02085
thorax -3.08795 -3.36082 -0.589748
lowerneck -6.82222 -4.48068 0.192424
upperneck 4.07677 -6.3125 4.94432
head 2.65459 -2.99605 1.27605
lclavicle 1.53064e-014 -6.75868e-015 0
lhumerus 34.8611 -34.6474 17.7114
lradius 84.3711 -0 0
lwrist 30.1824 0 0
lhand -20.3365 -5.67478 0.0548909
lfingers 7.12502 -0 0
lthumb 6.01424 24.1991 0.0501047
rclavicle 1.53064e-014 -6.75868e-015 0
rhumerus -40.9274 -9.28363 -19.872
rradius 96.3074 -0 0
rwrist -12.4497 0 0
rhand -33.571 -42.8332 -0.0829868
rfingers 7.12502 -0 0
rthumb -6.76534 -72.6994 -0.0805968
691
root 5.28459 17.9623 2.75489 13.5369 -42.6951 2.17952
lfemur -47.0033 18.3112 19.7759
ltibia 126.729 -0 0
lfoot 9.29297 -3.62429 0.0512808
ltoes 28.2982 -0 0
rfemur -9.50591 -2.9312 15.2643
rtibia 8.57941 -0 0
rfoot 5.25165 3.18813 0.465392
rtoes 0.145859 -0 0
lowerback 2.33373 -4.80049 -2.20787
upperback -1.82953 -6.59191 -2.17594
thorax -3.19313 -3.26854 -0.679124
lowerneck -6.65287 -4.5288 0.145013
upperneck 4.15379 -6.38506 5.08754
head 2.65978 -3.02759 1.32995
lclavicle 1.53064e-014 -6.75868e-015 0
lhumerus 34.4143 -32.4833 16.2274
lradius 83.7119 -0 0
lwrist 30.1807 0 0
lhand -20.7279 -5.89113 0.0413
lfingers 7.12502 -0 0
lthumb 5.63653 23.9981 0.0375905
rclavicle 1.53064e-014 -6.75868e-015 0
rhumerus -39.9462 -9.16403 -18.6418
rradius 97.7782 -0 0
rwrist -12.0181 0 0
rhand -33.7932 -42.4534 -0.0637344
rfingers 7.12502 -0 0
rthumb -6.97989 -72.3155 -0.0618046
